<svg id="Layer_3_copy_2" height="512" viewBox="0 0 64 64" width="512" xmlns="http://www.w3.org/2000/svg" data-name="Layer 3 copy 2">
	<path d="m23 11a1 1 0 0 1 -1-1v-9a1 1 0 0 1 2 0v9a1 1 0 0 1 -1 1z" fill="#5053d6" />
	<path d="m52 29v1a10 10 0 0 1 -10 10h-21a2.006 2.006 0 0 0 -2 2v1a2.006 2.006 0 0 0 2 2h13a10 10 0 0 1 10 10v4a4 4 0 0 1 -4 4 1.719 1.719 0 0 1 -.32-.02 3.98 3.98 0 0 1 -3.68-3.98v-4a2.006 2.006 0 0 0 -2-2h-13a10 10 0 0 1 -10-10v-1a10 10 0 0 1 10-10h21a2.006 2.006 0 0 0 2-2v-1a2.006 2.006 0 0 0 -2-2h-13a10 10 0 0 1 -10-10v-2l-2-5a6 6 0 0 1 12 0l-2 5v2a2.006 2.006 0 0 0 2 2h13a10 10 0 0 1 10 10z" fill="#19ae67" />
	<g opacity=".4">
		<path d="m47.27 28.76v1.24a6 6 0 0 1 -6 6h-19.55a6 6 0 0 0 0 12h11.96a6 6 0 0 1 6 6v8.98a3.98 3.98 0 0 1 -3.68-3.98v-4a2.006 2.006 0 0 0 -2-2h-13a10 10 0 0 1 -10-10v-1a10 10 0 0 1 10-10h21a2.006 2.006 0 0 0 2-2v-1a2.006 2.006 0 0 0 -2-2h-13a10 10 0 0 1 -10-10v-2l-2-5a6 6 0 0 1 6-6v12.24c0 3.22 2.54 6.38 5.75 6.52h12.77a6.009 6.009 0 0 1 5.75 6z" fill="#27825a" />
	</g>
	<g opacity=".44">
		<path d="m52 29v1a10 10 0 0 1 -10 10h-21a2.006 2.006 0 0 0 -2 2v1a2.006 2.006 0 0 0 2 2h13a10 10 0 0 1 10 10v4a4 4 0 0 1 -4 4 1.719 1.719 0 0 1 -.32-.02 3.98 3.98 0 0 1 -3.68-3.98v-4a2.006 2.006 0 0 0 -2-2h-13a10 10 0 0 1 -10-10v-1a10 10 0 0 1 10-10h21a2.006 2.006 0 0 0 2-2v-1a2.006 2.006 0 0 0 -2-2h-13a10 10 0 0 1 -10-10v-2l-2-5a6 6 0 0 1 12 0l-2 5v2a2.006 2.006 0 0 0 2 2h13a10 10 0 0 1 10 10z" fill="#19ae67" />
	</g>
	<g fill="#0c7143">
		<path d="m32 23h4v4h-4z" />
		<path d="m23 36h4v4h-4z" />
		<path d="m29 45h4v4h-4z" />
		<path d="m21 49h4v4h-4z" />
		<path d="m44 23v-3.8a10.03 10.03 0 0 0 -2-.2h-2v4z" />
		<path d="m23 19.172-2.687 2.768a10.043 10.043 0 0 0 2.644 3.013l2.871-2.953z" />
		<path d="m15 40h-3.8a10.03 10.03 0 0 0 -.2 2v1c0 .338.018.671.051 1h3.949z" />
		<path d="m40 54h-4.279a1.972 1.972 0 0 1 .279 1v3h4z" />
		<path d="m34 32h4v4h-4z" />
	</g>
</svg>
